<svg width="400" height="100" viewBox="0 0 400 100" fill="none" xmlns="http://www.w3.org/2000/svg">
<path d="M60 10H38V48L20 10H0V90H22V52L40 90H60V10Z" fill="black"/>
<path d="M135 10C115.67 10 100 27.9086 100 50C100 72.0914 115.67 90 135 90C154.33 90 170 72.0914 170 50C170 27.9086 154.33 10 135 10ZM135 70C127.82 70 122 61.0457 122 50C122 38.9543 127.82 30 135 30C142.18 30 148 38.9543 148 50C148 61.0457 142.18 70 135 70Z" fill="black"/>
<path d="M210 10L230 90H252L272 10H248L241 45L234 10H210Z" fill="black"/>
<path d="M340 90L315 10H290L265 90H288L294 70H336L342 90H365L340 90ZM300 50L315 10L330 50H300Z" fill="black"/>
</svg>